<?xml version="1.0" encoding="utf-8"?>
<!-- Generator: Adobe Illustrator 24.2.0, SVG Export Plug-In . SVG Version: 6.00 Build 0)  -->
<svg version="1.1" id="Capa_1" xmlns="http://www.w3.org/2000/svg" xmlns:xlink="http://www.w3.org/1999/xlink" x="0px" y="0px"
	 viewBox="0 0 55.6 55.8" style="enable-background:new 0 0 55.6 55.8;" xml:space="preserve">
<style type="text/css">
	.st0{fill:#00D3B7;}
</style>
<path class="st0" d="M51.8,30.5L34,12.8L45.8,0.3c0.4-0.4,1-0.4,1.4,0c0.4,0.4,0.4,1,0,1.4L36.8,12.8l15,14.9l2.1-1.9
	c0.4-0.4,1-0.3,1.4,0.1c0.4,0.4,0.3,1-0.1,1.4L51.8,30.5z"/>
<path class="st0" d="M4.1,30.5l-3.7-3.1c-0.4-0.4-0.5-1-0.1-1.4c0.4-0.4,1-0.5,1.4-0.1l2.3,1.9l15.3-15.2L9,1.7
	c-0.4-0.4-0.4-1,0-1.4c0.4-0.4,1-0.4,1.4,0L22,12.6L4.1,30.5z"/>
<path class="st0" d="M9.4,44.9c-0.9,0-1.8-0.3-2.6-1c-1.4-1.4-1.4-3.6-0.1-5.1l2.5-2.5c1.4-1.4,3.6-1.4,5.1,0l0.1,0.1
	c1.2,1.4,1.2,3.5,0,5l-0.1,0.1l-2.5,2.5C11.2,44.5,10.3,44.9,9.4,44.9z M11.8,37.2c-0.4,0-0.8,0.2-1.1,0.5l-2.5,2.5
	c-0.6,0.7-0.6,1.7,0,2.3c0.7,0.6,1.7,0.6,2.3,0l2.5-2.5c0.5-0.7,0.6-1.7,0-2.3C12.6,37.3,12.2,37.2,11.8,37.2z M13.7,40.6L13.7,40.6
	L13.7,40.6z"/>
<path class="st0" d="M17.4,52.8c-1.1,0-2.1-0.4-2.9-1.2c-0.8-0.8-1.2-1.8-1.2-2.9s0.4-2.1,1.2-2.9l1.9-1.9c1.5-1.5,4.2-1.5,5.7,0
	c0.7,0.7,1.1,1.6,1.2,2.6c0,1.1-0.4,2.2-1.2,3.1l0,0l-1.9,1.9C19.4,52.4,18.4,52.8,17.4,52.8z M19.2,44.8c-0.5,0-1.1,0.2-1.4,0.6
	l-1.9,1.9c-0.4,0.4-0.6,0.9-0.6,1.4s0.2,1.1,0.6,1.4c0.8,0.8,2.1,0.8,2.9,0l1.9-1.9c0.4-0.5,0.6-1,0.6-1.6c0-0.5-0.2-0.9-0.6-1.3
	C20.3,45,19.8,44.8,19.2,44.8z M21.4,49L21.4,49L21.4,49z"/>
<path class="st0" d="M23.2,55.3c-1,0-1.9-0.3-2.7-1c-1.4-1.4-1.4-3.8-0.1-5.3l1.3-1.3c1.4-1.4,3.8-1.4,5.3,0
	c0.8,0.8,1.2,1.7,1.2,2.7c0,1-0.4,1.9-1.1,2.7l-1.3,1.3C25.1,55,24.2,55.3,23.2,55.3z M24.4,48.6c-0.5,0-0.9,0.2-1.2,0.5l-1.3,1.3
	c-0.6,0.7-0.6,1.9,0,2.5c0.7,0.6,1.9,0.6,2.5,0l1.3-1.3c0.3-0.3,0.5-0.8,0.5-1.2c0-0.5-0.2-0.9-0.5-1.2
	C25.4,48.8,24.9,48.6,24.4,48.6z"/>
<path class="st0" d="M13,48.6c-0.9,0-1.8-0.3-2.6-1C9,46.1,9,43.9,10.4,42.4l4.5-4.5c1.4-1.4,3.6-1.4,5.1,0c0.7,0.7,1.1,1.5,1.2,2.5
	c0,1-0.4,1.9-1.1,2.7l-4.5,4.5C14.8,48.2,13.9,48.6,13,48.6z M17.4,38.9c-0.4,0-0.8,0.2-1.1,0.5l-4.5,4.5c-0.6,0.7-0.6,1.7,0,2.3
	c0.7,0.6,1.7,0.6,2.3,0l4.5-4.5c0.4-0.4,0.5-0.8,0.5-1.2c0-0.4-0.2-0.8-0.5-1C18.3,39,17.8,38.9,17.4,38.9z"/>
<path class="st0" d="M47.2,46c-0.9,0-1.8-0.3-2.5-1l-9.3-9.4c-0.4-0.4-0.4-1,0-1.4c0.4-0.4,1-0.4,1.4,0l9.3,9.4
	c0.7,0.6,1.7,0.6,2.3,0c0.6-0.7,0.6-1.7,0-2.3L35.6,28.5c-0.4-0.4-0.4-1,0-1.4s1-0.4,1.4,0l12.7,12.7c1.4,1.4,1.4,3.6,0,5.1
	C49,45.6,48.1,46,47.2,46z"/>
<path class="st0" d="M42.7,49.8c-0.9,0-1.8-0.3-2.4-1l-7.2-7.1c-0.4-0.4-0.4-1,0-1.4s1-0.4,1.4,0l7.2,7.1c0.3,0.3,0.7,0.4,1.1,0.4
	c0.5,0,0.9-0.2,1.3-0.6c0.7-0.8,0.8-1.9,0.2-2.5l-9-9.2c-0.4-0.4-0.4-1,0-1.4s1-0.4,1.4,0l9,9.2c1.4,1.4,1.3,3.7-0.2,5.3
	c-0.7,0.7-1.7,1.2-2.6,1.2C42.8,49.8,42.8,49.8,42.7,49.8z"/>
<path class="st0" d="M37.8,53.4c-0.9,0-1.8-0.3-2.5-0.9l-4.1-4.1c-0.4-0.4-0.4-1,0-1.4s1-0.4,1.4,0l4.1,4.1c0.7,0.6,1.8,0.5,2.5-0.2
	c0.7-0.8,0.8-1.9,0.2-2.5l-6.3-6.5c-0.4-0.4-0.4-1,0-1.4s1-0.4,1.4,0l6.3,6.5c1.4,1.4,1.3,3.7-0.2,5.3C39.8,53,38.8,53.4,37.8,53.4z
	"/>
<path class="st0" d="M32,55.8c-0.9,0-1.8-0.3-2.5-0.9l-1.2-1.2c-0.4-0.4-0.4-1,0-1.4s1-0.4,1.4,0l1.2,1.2c0.7,0.6,1.8,0.5,2.5-0.2
	c0.7-0.8,0.8-1.9,0.2-2.5l-2.4-2.6c-0.4-0.4-0.3-1,0.1-1.4c0.4-0.4,1-0.3,1.4,0.1l2.4,2.6c1.3,1.3,1.3,3.7-0.2,5.3
	C34,55.4,33,55.8,32,55.8z"/>
<path class="st0" d="M10.1,37.9c-0.3,0-0.5-0.1-0.7-0.3c-4.1-3.9-4.1-10.4-4.1-10.7c0-0.6,0.5-1,1-1c0.6,0,1,0.4,1,1
	c0,0.1,0.1,5.9,3.5,9.3c0.4,0.4,0.4,1,0,1.4C10.6,37.8,10.4,37.9,10.1,37.9z"/>
<path class="st0" d="M20.3,33.9c-0.6,0-1.2-0.1-1.8-0.4c-1.3-0.7-1.9-2-2.2-3l0-0.3c0-0.4,0-1,0.4-1.5c0.2-0.3,0.6-0.7,1-1.3
	c2.4-3.1,4.6-6,5.5-6.7c1.1-0.9,11.5-5.7,13.5-6.6c0.5-0.2,1.1,0,1.3,0.5c0.2,0.5,0,1.1-0.5,1.3c-5.8,2.7-12.4,5.8-13.1,6.4
	c-0.7,0.6-3.7,4.5-5.1,6.3c-0.4,0.6-0.8,1-1,1.3c0,0,0,0,0,0.1c0.2,0.5,0.5,1.3,1.1,1.6c0.5,0.3,1.1,0.3,2,0
	c2.5-1.5,5.1-5.8,5.2-5.8l0.3-0.4l6.3-0.5c0.6-0.1,1,0.4,1.1,0.9c0,0.6-0.4,1-0.9,1.1L28,27.4c-0.8,1.2-3.2,4.7-5.7,6.1l-0.2,0.1
	C21.5,33.8,20.9,33.9,20.3,33.9z"/>
<path class="st0" d="M30.5,19.2c-0.3,0-0.5-0.1-0.7-0.3c-2.1-2.4-9-2.9-11.5-3c-0.6,0-1-0.5-1-1c0-0.6,0.4-1,1-1
	c1,0,9.8,0.2,12.9,3.6c0.4,0.4,0.3,1-0.1,1.4C31,19.1,30.7,19.2,30.5,19.2z"/>
<path class="st0" d="M45.7,37.9c-0.4,0-0.7-0.2-0.9-0.5c-0.3-0.5-0.1-1.1,0.4-1.3c2.1-1.1,2.6-4.8,2.6-6.2c0-0.6,0.4-1,1-1h0
	c0.6,0,1,0.4,1,1c0,0.2,0,6.1-3.6,8C46,37.9,45.9,37.9,45.7,37.9z"/>
</svg>
