<?xml version="1.0" encoding="utf-8"?>
<!-- Generator: Adobe Illustrator 24.2.0, SVG Export Plug-In . SVG Version: 6.00 Build 0)  -->
<svg version="1.1" id="Capa_1" xmlns="http://www.w3.org/2000/svg" xmlns:xlink="http://www.w3.org/1999/xlink" x="0px" y="0px"
	 viewBox="0 0 51.2 55.8" style="enable-background:new 0 0 51.2 55.8;" xml:space="preserve">
<style type="text/css">
	.st0{fill:#00D3B7;}
</style>
<path class="st0" d="M12.3,13.4c-3.7,0-6.7-3-6.7-6.7S8.6,0,12.3,0S19,3,19,6.7S16,13.4,12.3,13.4z M12.3,2C9.7,2,7.6,4.1,7.6,6.7
	c0,2.6,2.1,4.7,4.7,4.7c2.6,0,4.7-2.1,4.7-4.7C17,4.1,14.9,2,12.3,2z"/>
<path class="st0" d="M38.7,13.4c-3.7,0-6.7-3-6.7-6.7S35,0,38.7,0s6.7,3,6.7,6.7S42.4,13.4,38.7,13.4z M38.7,2C36.1,2,34,4.1,34,6.7
	c0,2.6,2.1,4.7,4.7,4.7s4.7-2.1,4.7-4.7C43.4,4.1,41.3,2,38.7,2z"/>
<path class="st0" d="M26.7,52.2h-18c-1.7,0-3.1-1.4-3.1-3.1V36.8c0-1.7,1.4-3.1,3.1-3.1h1.6l3.8-4c0.4-0.5,1-0.6,1.6-0.4
	c0.7,0.2,1.1,0.8,1.1,1.5l-0.1,2.9h10c1.7,0,3.1,1.4,3.1,3.1v12.3C29.7,50.9,28.3,52.2,26.7,52.2z M8.7,35.7c-0.5,0-1.1,0.4-1.1,1.1
	v12.3c0,0.5,0.4,1.1,1.1,1.1h18c0.6,0,1-0.5,1.1-1.2l0-12.2c0-0.5-0.4-1.1-1.1-1.1h-12l0.1-3.8l-3.6,3.8H8.7z"/>
<path class="st0" d="M41.8,55.8H23.9c-1.7,0-3.1-1.4-3.1-3.1v-1.5c0-0.6,0.4-1,1-1s1,0.4,1,1v1.5c0,0.7,0.6,1.1,1.1,1.1h17.9
	c0.7,0,1.1-0.6,1.1-1.1V40.4c0-0.7-0.6-1.1-1.1-1.1h-2.4l-3.6-3.8l0.1,3.8h-7.2c-0.6,0-1-0.4-1-1s0.4-1,1-1h5.2l-0.1-2.9
	c0-0.7,0.4-1.3,1.1-1.5c0.6-0.2,1.2,0,1.6,0.4l3.8,4h1.6c1.7,0,3.1,1.4,3.1,3.1v12.3C44.9,54.4,43.5,55.8,41.8,55.8z"/>
<path class="st0" d="M25.2,42.7H10.6c-0.6,0-1-0.4-1-1s0.4-1,1-1h14.6c0.6,0,1,0.4,1,1S25.8,42.7,25.2,42.7z"/>
<path class="st0" d="M25.2,46.4H10.6c-0.6,0-1-0.4-1-1s0.4-1,1-1h14.6c0.6,0,1,0.4,1,1S25.8,46.4,25.2,46.4z"/>
<path class="st0" d="M39.3,46.4h-9.9c-0.6,0-1-0.4-1-1s0.4-1,1-1h9.9c0.6,0,1,0.4,1,1S39.9,46.4,39.3,46.4z"/>
<path class="st0" d="M39.3,50.2h-9.9c-0.6,0-1-0.4-1-1s0.4-1,1-1h9.9c0.6,0,1,0.4,1,1S39.9,50.2,39.3,50.2z"/>
<path class="st0" d="M24.7,26.5H0v-1c0-6.3,5.1-11.4,11.3-11.4h2c6.2,0,11.3,5.1,11.4,11.4L24.7,26.5z M2.1,24.5h20.6
	c-0.6-4.7-4.6-8.4-9.3-8.4h-2C6.5,16.1,2.5,19.8,2.1,24.5z"/>
<path class="st0" d="M51.1,26.4H26.4v-1c0-6.2,5.1-11.3,11.3-11.3h2c3.1,0,6,1.2,8.2,3.4c2.1,2.1,3.2,4.9,3.2,7.9L51.1,26.4z
	 M28.5,24.4h20.6c-0.2-2-1.1-3.9-2.6-5.5c-1.8-1.8-4.2-2.8-6.8-2.8h-2C32.9,16.1,29,19.7,28.5,24.4z"/>
</svg>
